<?xml version="1.0" encoding="UTF-8"?>
<svg id="stacked_1:1_light" xmlns="http://www.w3.org/2000/svg" viewBox="0 0 760 760">
  <defs>
    <style>
      .cls-1 {
        stroke-miterlimit: 4;
      }

      .cls-1, .cls-2, .cls-3, .cls-4 {
        fill: none;
        stroke: #000;
        stroke-linecap: round;
        stroke-width: 28px;
      }

      .cls-2 {
        stroke-miterlimit: 4;
      }

      .cls-3 {
        stroke-miterlimit: 4;
      }
    </style>
  </defs>
  <path class="cls-3" d="M373.38,205.96h350.78"/>
  <path class="cls-3" d="M264.25,205.96h37.03"/>
  <path class="cls-4" d="M478.71,293.29c83.99.78,165.84.78,248.86,0"/>
  <path class="cls-4" d="M160.47,293.29c82.63.78,164.48.78,246.91,0"/>
  <path class="cls-2" d="M187.95,380.21c180.07-.39,357.41-.39,536.31,0"/>
  <path class="cls-2" d="M32.43,380.21c27.48-.39,54.76-.39,82.63,0"/>
  <path class="cls-4" d="M616.88,467.12c37.61.39,74.64.39,110.69,0"/>
  <path class="cls-4" d="M365.09,467.12c61.39.39,119.85.39,179.87,0"/>
  <path class="cls-1" d="M453.37,554.04c91.98-.78,181.63-.78,273.03,0"/>
  <path class="cls-1" d="M315.2,554.04c21.63-.78,45.02-.78,67.23,0"/>
</svg>