<?xml version="1.0" encoding="UTF-8"?>
<svg id="inline_3:1_light" xmlns="http://www.w3.org/2000/svg" viewBox="0 0 1200 400">
  <defs>
    <style>
      .cls-1 {
        stroke-miterlimit: 4;
      }

      .cls-1, .cls-2, .cls-3, .cls-4 {
        fill: none;
        stroke: #000;
        stroke-linecap: round;
        stroke-width: 15px;
      }

      .cls-5 {
        font-size: 36px;
      }

      .cls-5, .cls-6 {
        font-family: Agrandir-Regular, Agrandir;
      }

      .cls-2 {
        stroke-miterlimit: 4;
      }

      .cls-7 {
        letter-spacing: .15em;
      }

      .cls-8 {
        letter-spacing: .17em;
      }

      .cls-9 {
        letter-spacing: .19em;
      }

      .cls-6 {
        fill: #00adee;
        font-size: 143.62px;
      }

      .cls-4 {
        stroke-miterlimit: 4;
      }
    </style>
  </defs>
  <g id="Layer_1" data-name="Layer 1">
    <path d="M525.84,296.34c33.8,0,55.2-21.2,55.2-55.2l-.2-103.3h-14.7l-1.5,17h-.2c-6.9-12.3-21.2-20.6-36.2-20.6-28.4,0-47.9,23.2-47.9,57.6s19.5,57.4,47.9,57.4c14.3,0,28.8-9.1,36-22.1h.2v13.9c0,24.9-15.4,40.3-39.2,40.3-16.9,0-32.7-9.3-40.1-23.6l-13,10.6c8.9,16.9,30.1,28,53.7,28ZM531.04,234.34c-20.4,0-34.2-17.3-34.2-42.5s13.9-42.9,34.2-42.9,33.8,17.8,33.8,42.9c0,24.8-13.7,42.5-33.8,42.5Z"/>
    <path d="M652.72,250.84c22.1,0,40.1-11.7,46.1-30.5l-14.1-6.3c-5,13.4-16.9,21.9-32.3,21.9-21,0-35.5-14.9-37.3-37.9h80.2c.2-1.5.2-3.9.2-6.5-.2-34.9-18.6-57.4-47.7-57.4s-49.6,22.5-49.6,57.2c.2,35.9,21.8,59.5,54.5,59.5ZM615.32,183.44c2.4-21,14.1-34.2,32.7-34.2,17.5,0,28.6,12.6,30.1,34.2h-62.8Z"/>
    <path d="M706.02,247.14h18.4l26.7-45.3,26.2,45.3h18.6l-34.9-56.7,32.7-52.6h-18.2l-24.5,41.4-24.5-41.4h-18.4l32.7,52.6-34.8,56.7Z"/>
    <path d="M865.9,250.81c28.6,0,48.1-23.4,48.1-58.3s-19.5-58.5-48.1-58.5c-16.2,0-29,7.8-36.6,21.2h-.2v-67.4h-16.5v159.3h14.3l1.7-18.2h.2c7.4,13.9,20.6,21.9,37.1,21.9ZM863.1,235.21c-20.6,0-34.4-17.5-34.4-42.7s13.9-42.9,34.4-42.9,34.4,17.3,34.4,42.9-14.1,42.7-34.4,42.7Z"/>
    <path d="M978.68,250.81c31.4,0,52-23.2,52-58.5s-20.6-58.3-52-58.3-51.8,23-51.8,58.3,20.7,58.5,51.8,58.5ZM978.68,235.91c-21.4,0-35.3-17.1-35.3-43.5s13.9-43.1,35.3-43.1,35.3,16.9,35.3,43.1c.1,26.4-13.8,43.5-35.3,43.5Z"/>
    <path d="M1089.45,250.81c17.5,0,31.2-11.3,32.7-29.5l-13.9-5.8c-1.1,14.1-8.5,21-17.8,21-10,0-15.4-7.8-15.4-19.1l-.2-66h41v-13.7h-41v-35.5l-16.5,3.9v31.6h-21.2v13.7h21.2l.2,68.2c.1,18.9,12,31.2,30.9,31.2Z"/>
    <path class="cls-1" d="M266.4,103.1h180.2"/>
    <path class="cls-1" d="M209.3,103.1h19.3"/>
    <path class="cls-3" d="M319.5,147.7c43.1.4,85.1.4,127.7,0"/>
    <path class="cls-3" d="M156.2,147.7c42.4.4,84.4.4,126.7,0"/>
    <path class="cls-4" d="M171.3,192.3c92.4-.2,183.4-.2,275.2,0"/>
    <path class="cls-4" d="M90.5,192.3c14.1-.2,28.1-.2,42.4,0"/>
    <path class="cls-3" d="M390.4,236.9c19.3.2,38.3.2,56.8,0"/>
    <path class="cls-3" d="M261.2,236.9c31.5.2,61.5.2,92.3,0"/>
    <path class="cls-2" d="M306.5,281.5c47.2-.4,93.2-.4,140.1,0"/>
    <path class="cls-2" d="M235.6,281.5c11.1-.4,23.1-.4,34.5,0"/>
  </g>
  <text class="cls-5" transform="translate(1116 112.19)"><tspan x="0" y="0">™</tspan></text>
  <text class="cls-6" transform="translate(808.03 344.9) scale(.82 .8)"><tspan class="cls-8" x="0" y="0">b</tspan><tspan class="cls-7" x="111.31" y="0">e</tspan><tspan class="cls-9" x="214.72" y="0">t</tspan><tspan class="cls-8" x="306.2" y="0">a</tspan></text>
</svg>