<?xml version="1.0" encoding="UTF-8"?><svg id="c" xmlns="http://www.w3.org/2000/svg" viewBox="0 0 760 380"><path d="M538.6,175.04c21.83,0,35.8-14.08,35.8-36.69l-.11-68.06h-9.42l-.92,10.8h-.34c-4.46-8.18-13.73-13.59-23.36-13.59-18.31,0-30.99,15.4-30.99,38.26s12.56,38.02,30.99,38.02c9.27,0,18.67-6.02,23.24-14.68h.12v9.38c0,16.48-9.98,26.71-25.36,26.71-10.92,0-21.13-6.14-25.94-15.64l-8.45,6.98c5.75,11.19,19.49,18.53,34.75,18.53ZM541.39,134.42c-13.44,0-22.68-11.52-22.68-28.08s9.12-28.32,22.68-28.32,22.32,11.76,22.32,28.32c0,16.32-9,28.08-22.32,28.08Z" style="fill:#fff;"/><path d="M621.89,144.81c14.64,0,26.52-7.68,30.48-20.16l-9.36-4.2c-3.24,8.88-11.16,14.52-21.36,14.52-13.92,0-23.52-9.84-24.6-25.08h53.04c.12-.96.12-2.64.12-4.32-.12-23.16-12.24-38.04-31.44-38.04s-32.76,14.88-32.76,37.8c-.12,23.76,14.28,39.48,35.88,39.48ZM597.05,100.29c1.56-13.92,9.36-22.68,21.6-22.68s18.96,8.28,19.92,22.68h-41.52Z" style="fill:#fff;"/><path d="M657.32,142.29h12.06l17.55-29.85,17.31,29.85h12.3l-23.04-37.37,21.49-34.63h-11.94l-16.12,27.22-16.12-27.22h-12.18l21.49,34.63-22.81,37.37Z" style="fill:#fff;"/><path d="M546.81,302.19c19.19,0,32.19-15.67,32.19-39s-13.12-39.12-32.19-39.12c-10.93,0-19.44,5.22-24.54,14.21h.53v-44.4h-10.8v104.4h8.53l1.08-10.8h.41c4.98,9.23,13.73,14.7,24.78,14.7ZM545.06,291c-13.56,0-22.8-11.64-22.8-28.2s9.12-28.32,22.8-28.32,22.8,11.52,22.8,28.32-9.36,28.2-22.8,28.2Z" style="fill:#fff;"/><path d="M621.59,301.32c20.76,0,34.44-15.36,34.44-38.64s-13.68-38.64-34.44-38.64-34.2,15.24-34.2,38.52,13.56,38.76,34.2,38.76ZM621.59,291.36c-14.16,0-23.4-11.28-23.4-28.8s9.12-28.56,23.4-28.56,23.4,11.16,23.4,28.56c-.12,17.52-9.24,28.8-23.4,28.8Z" style="fill:#fff;"/><path d="M694.08,301.77c11.39,0,20.19-7.44,21.13-19.44l-8.92-3.84c-.7,9.36-5.52,13.92-11.5,13.92-6.46,0-9.98-5.16-9.98-12.6l-.12-43.92h27.72v-9.6h-27.6v-23.52l-10.8,2.52v21h-14.4v9.6h14.4l.12,45.12c0,12.48,7.75,20.76,19.96,20.76Z" style="fill:#fff;"/><path d="M253.41,76.89h216" style="fill:none; stroke:#fff; stroke-linecap:round; stroke-miterlimit:4; stroke-width:15px;"/><path d="M186.21,76.89h22.8" style="fill:none; stroke:#fff; stroke-linecap:round; stroke-miterlimit:4; stroke-width:15px;"/><path d="M318.26,130.66c51.72.48,102.12.48,153.24,0" style="fill:none; stroke:#fff; stroke-linecap:round; stroke-width:15px;"/><path d="M122.3,130.66c50.88.48,101.28.48,152.04,0" style="fill:none; stroke:#fff; stroke-linecap:round; stroke-width:15px;"/><path d="M139.22,184.18c110.88-.24,220.08-.24,330.24,0" style="fill:none; stroke:#fff; stroke-linecap:round; stroke-miterlimit:4; stroke-width:15px;"/><path d="M43.46,184.18c16.92-.24,33.72-.24,50.88,0" style="fill:none; stroke:#fff; stroke-linecap:round; stroke-miterlimit:4; stroke-width:15px;"/><path d="M403.34,237.7c23.16.24,45.96.24,68.16,0" style="fill:none; stroke:#fff; stroke-linecap:round; stroke-width:15px;"/><path d="M248.3,237.7c37.8.24,73.8.24,110.76,0" style="fill:none; stroke:#fff; stroke-linecap:round; stroke-width:15px;"/><path d="M302.66,291.22c56.64-.48,111.84-.48,168.12,0" style="fill:none; stroke:#fff; stroke-linecap:round; stroke-miterlimit:4; stroke-width:15px;"/><path d="M217.58,291.22c13.32-.48,27.72-.48,41.4,0" style="fill:none; stroke:#fff; stroke-linecap:round; stroke-miterlimit:4; stroke-width:15px;"/><path d="M719.69,57.8h-3.62v-1.44h8.86v1.44h-3.62v8.76h-1.61v-8.76ZM725.98,56.36h2.35l3.89,8.33,3.89-8.33h2.35v10.2h-1.61v-8.23l-3.84,8.23h-1.58l-3.84-8.23v8.23h-1.61v-10.2Z" style="fill:#fff;"/></svg>