<?xml version="1.0" encoding="UTF-8"?><svg id="e" xmlns="http://www.w3.org/2000/svg" viewBox="0 0 1200 400"><g id="f"><path d="M525.84,296.34c33.8,0,55.2-21.2,55.2-55.2l-.2-103.3h-14.7l-1.5,17h-.2c-6.9-12.3-21.2-20.6-36.2-20.6-28.4,0-47.9,23.2-47.9,57.6s19.5,57.4,47.9,57.4c14.3,0,28.8-9.1,36-22.1h.2v13.9c0,24.9-15.4,40.3-39.2,40.3-16.9,0-32.7-9.3-40.1-23.6l-13,10.6c8.9,16.9,30.1,28,53.7,28ZM531.04,234.34c-20.4,0-34.2-17.3-34.2-42.5s13.9-42.9,34.2-42.9,33.8,17.8,33.8,42.9c0,24.8-13.7,42.5-33.8,42.5Z" style="fill:#fff;"/><path d="M652.72,250.84c22.1,0,40.1-11.7,46.1-30.5l-14.1-6.3c-5,13.4-16.9,21.9-32.3,21.9-21,0-35.5-14.9-37.3-37.9h80.2c.2-1.5.2-3.9.2-6.5-.2-34.9-18.6-57.4-47.7-57.4s-49.6,22.5-49.6,57.2c.2,35.9,21.8,59.5,54.5,59.5ZM615.32,183.44c2.4-21,14.1-34.2,32.7-34.2,17.5,0,28.6,12.6,30.1,34.2h-62.8Z" style="fill:#fff;"/><path d="M706.02,247.14h18.4l26.7-45.3,26.2,45.3h18.6l-34.9-56.7,32.7-52.6h-18.2l-24.5,41.4-24.5-41.4h-18.4l32.7,52.6-34.8,56.7Z" style="fill:#fff;"/><path d="M865.9,250.81c28.6,0,48.1-23.4,48.1-58.3s-19.5-58.5-48.1-58.5c-16.2,0-29,7.8-36.6,21.2h-.2v-67.4h-16.5v159.3h14.3l1.7-18.2h.2c7.4,13.9,20.6,21.9,37.1,21.9ZM863.1,235.21c-20.6,0-34.4-17.5-34.4-42.7s13.9-42.9,34.4-42.9,34.4,17.3,34.4,42.9-14.1,42.7-34.4,42.7Z" style="fill:#fff;"/><path d="M978.68,250.81c31.4,0,52-23.2,52-58.5s-20.6-58.3-52-58.3-51.8,23-51.8,58.3,20.7,58.5,51.8,58.5ZM978.68,235.91c-21.4,0-35.3-17.1-35.3-43.5s13.9-43.1,35.3-43.1,35.3,16.9,35.3,43.1c.1,26.4-13.8,43.5-35.3,43.5Z" style="fill:#fff;"/><path d="M1089.45,250.81c17.5,0,31.2-11.3,32.7-29.5l-13.9-5.8c-1.1,14.1-8.5,21-17.8,21-10,0-15.4-7.8-15.4-19.1l-.2-66h41v-13.7h-41v-35.5l-16.5,3.9v31.6h-21.2v13.7h21.2l.2,68.2c.1,18.9,12,31.2,30.9,31.2Z" style="fill:#fff;"/></g><path d="M1121.79,88.97h-5.43v-2.16h13.28v2.16h-5.44v13.14h-2.41v-13.14ZM1131.23,86.81h3.53l5.83,12.49,5.83-12.49h3.53v15.3h-2.41v-12.35l-5.76,12.35h-2.38l-5.76-12.35v12.35h-2.41v-15.3Z" style="fill:#fff;"/><g id="g"><path d="M235.6,281.5c11.1-.4,23.1-.4,34.5,0" style="fill:none; stroke:#fff; stroke-linecap:round; stroke-miterlimit:4; stroke-width:15px;"/><path d="M266.4,103.1h180.2" style="fill:none; stroke:#fff; stroke-linecap:round; stroke-miterlimit:4; stroke-width:15px;"/><path d="M209.3,103.1h19.3" style="fill:none; stroke:#fff; stroke-linecap:round; stroke-miterlimit:4; stroke-width:15px;"/><path d="M319.5,147.7c43.1.4,85.1.4,127.7,0" style="fill:none; stroke:#fff; stroke-linecap:round; stroke-width:15px;"/><path d="M156.2,147.7c42.4.4,84.4.4,126.7,0" style="fill:none; stroke:#fff; stroke-linecap:round; stroke-width:15px;"/><path d="M171.3,192.3c92.4-.2,183.4-.2,275.2,0" style="fill:none; stroke:#fff; stroke-linecap:round; stroke-miterlimit:4; stroke-width:15px;"/><path d="M90.5,192.3c14.1-.2,28.1-.2,42.4,0" style="fill:none; stroke:#fff; stroke-linecap:round; stroke-miterlimit:4; stroke-width:15px;"/><path d="M390.4,236.9c19.3.2,38.3.2,56.8,0" style="fill:none; stroke:#fff; stroke-linecap:round; stroke-width:15px;"/><path d="M261.2,236.9c31.5.2,61.5.2,92.3,0" style="fill:none; stroke:#fff; stroke-linecap:round; stroke-width:15px;"/><path d="M306.5,281.5c47.2-.4,93.2-.4,140.1,0" style="fill:none; stroke:#fff; stroke-linecap:round; stroke-miterlimit:4; stroke-width:15px;"/></g></svg>