<?xml version="1.0" encoding="utf-8"?>
<!-- Generator: Adobe Adobe Illustrator 24.2.0, SVG Export Plug-In . SVG Version: 6.00 Build 0)  -->
<svg version="1.1" xmlns="http://www.w3.org/2000/svg" xmlns:xlink="http://www.w3.org/1999/xlink" x="0px" y="0px" width="700px"
	 height="400px" viewBox="0 0 700 400" style="enable-background:new 0 0 700 400;" xml:space="preserve">
<style type="text/css">
	.st0{fill:#FFFFFF;stroke:#FFFFFF;stroke-miterlimit:10;}
	.st1{fill:#FFFFFF;stroke:#FFFFFF;stroke-width:15;stroke-linecap:round;stroke-miterlimit:3.9977;}
	.st2{fill:#FFFFFF;stroke:#FFFFFF;stroke-width:15;stroke-linecap:round;}
	.st3{fill:#FFFFFF;stroke:#FFFFFF;stroke-width:15;stroke-linecap:round;stroke-miterlimit:4.0009;}
	.st4{fill:#FFFFFF;stroke:#FFFFFF;stroke-width:15;stroke-linecap:round;stroke-miterlimit:3.998;}
	.st5{fill:none;stroke:#000000;stroke-width:15;stroke-linecap:round;stroke-miterlimit:3.9977;}
	.st6{fill:none;stroke:#FFFFFF;stroke-width:15;stroke-linecap:round;stroke-miterlimit:3.9977;}
	.st7{fill:none;stroke:#000000;stroke-width:15;stroke-linecap:round;}
	.st8{fill:none;stroke:#FFFFFF;stroke-width:15;stroke-linecap:round;}
	.st9{fill:none;stroke:#000000;stroke-width:15;stroke-linecap:round;stroke-miterlimit:4.0009;}
	.st10{fill:none;stroke:#FFFFFF;stroke-width:15;stroke-linecap:round;stroke-miterlimit:4.0009;}
	.st11{fill:none;stroke:#000000;stroke-width:15;stroke-linecap:round;stroke-miterlimit:3.998;}
	.st12{fill:none;stroke:#FFFFFF;stroke-width:15;stroke-linecap:round;stroke-miterlimit:3.998;}
</style>
<g id="Layer_1">
	<path class="st6" d="M346.5,117.7c60.7,0,119.6,0,180.2,0"/>
	<path class="st6" d="M290.5,117.7c6.4,0,12.9,0,19.3,0"/>
	<path class="st8" d="M400.6,162.3c43.1,0.4,85.1,0.4,127.7,0"/>
	<path class="st8" d="M237.4,162.3c42.4,0.4,84.4,0.4,126.7,0"/>
	<path class="st10" d="M251.4,206.9c92.4-0.2,183.4-0.2,275.2,0"/>
	<path class="st10" d="M171.6,206.9c14.1-0.2,28.1-0.2,42.4,0"/>
	<path class="st8" d="M471.5,251.5c19.3,0.2,38.3,0.2,56.8,0"/>
	<path class="st8" d="M342.3,251.5c31.5,0.2,61.5,0.2,92.3,0"/>
	<path class="st12" d="M387.6,296.1c47.2-0.4,93.2-0.4,140.1,0"/>
	<path class="st12" d="M316.7,296.1c11.1-0.4,23.1-0.4,34.5,0"/>
</g>
<g id="Layer_2">
</g>
</svg>
