<?xml version="1.0" encoding="UTF-8" standalone="no"?>
<!-- Generator: Adobe Adobe Illustrator 24.2.0, SVG Export Plug-In . SVG Version: 6.00 Build 0)  -->

<svg
   version="1.1"
   x="0px"
   y="0px"
   width="1200px"
   height="400px"
   viewBox="0 0 1200 400"
   xml:space="preserve"
   id="svg191"
   sodipodi:docname="GexBot_Education_Finalsvg_Inline_black.svg"
   style="enable-background:new 0 0 1200 400;"
   inkscape:version="1.1.2 (0a00cf5339, 2022-02-04)"
   xmlns:inkscape="http://www.inkscape.org/namespaces/inkscape"
   xmlns:sodipodi="http://sodipodi.sourceforge.net/DTD/sodipodi-0.dtd"
   xmlns="http://www.w3.org/2000/svg"
   xmlns:svg="http://www.w3.org/2000/svg"><defs
   id="defs195" /><sodipodi:namedview
   id="namedview193"
   pagecolor="#ffffff"
   bordercolor="#666666"
   borderopacity="1.0"
   inkscape:pageshadow="2"
   inkscape:pageopacity="0.0"
   inkscape:pagecheckerboard="0"
   showgrid="true"
   inkscape:snap-nodes="false"
   inkscape:snap-object-midpoints="true"
   inkscape:snap-center="true"
   inkscape:snap-grids="true"
   inkscape:zoom="0.905042"
   inkscape:cx="601.07708"
   inkscape:cy="290.59425"
   inkscape:window-width="1920"
   inkscape:window-height="1200"
   inkscape:window-x="0"
   inkscape:window-y="0"
   inkscape:window-maximized="1"
   inkscape:current-layer="svg191"><inkscape:grid
     type="xygrid"
     id="grid16443" /></sodipodi:namedview>
<style
   type="text/css"
   id="style119">
	.st0{fill:#FFFFFF;stroke:#FFFFFF;stroke-miterlimit:10;}
	.st1{fill:#FFFFFF;stroke:#FFFFFF;stroke-width:15;stroke-linecap:round;stroke-miterlimit:3.9977;}
	.st2{fill:#FFFFFF;stroke:#FFFFFF;stroke-width:15;stroke-linecap:round;}
	.st3{fill:#FFFFFF;stroke:#FFFFFF;stroke-width:15;stroke-linecap:round;stroke-miterlimit:4.0009;}
	.st4{fill:#FFFFFF;stroke:#FFFFFF;stroke-width:15;stroke-linecap:round;stroke-miterlimit:3.998;}
	.st5{fill:none;stroke:#000000;stroke-width:15;stroke-linecap:round;stroke-miterlimit:3.9977;}
	.st6{fill:none;stroke:#FFFFFF;stroke-width:15;stroke-linecap:round;stroke-miterlimit:3.9977;}
	.st7{fill:none;stroke:#000000;stroke-width:15;stroke-linecap:round;}
	.st8{fill:none;stroke:#FFFFFF;stroke-width:15;stroke-linecap:round;}
	.st9{fill:none;stroke:#000000;stroke-width:15;stroke-linecap:round;stroke-miterlimit:4.0009;}
	.st10{fill:none;stroke:#FFFFFF;stroke-width:15;stroke-linecap:round;stroke-miterlimit:4.0009;}
	.st11{fill:none;stroke:#000000;stroke-width:15;stroke-linecap:round;stroke-miterlimit:3.998;}
	.st12{fill:none;stroke:#FFFFFF;stroke-width:15;stroke-linecap:round;stroke-miterlimit:3.998;}
</style>
<g
   id="Layer_1"
   transform="translate(-6.00382,-23.561696)">
	<g
   id="g127"
   transform="translate(1.86173)">
		<g
   transform="translate(201.73827,149.83515)"
   id="g125">
			<g
   id="g123">
				<path
   d="m 324.1,146.5 c 33.8,0 55.2,-21.2 55.2,-55.2 L 379.1,-12 h -14.7 l -1.5,17 h -0.2 c -6.9,-12.3 -21.2,-20.6 -36.2,-20.6 -28.4,0 -47.9,23.2 -47.9,57.6 0,34.2 19.5,57.4 47.9,57.4 14.3,0 28.8,-9.1 36,-22.1 h 0.2 v 13.9 c 0,24.9 -15.4,40.3 -39.2,40.3 -16.9,0 -32.7,-9.3 -40.1,-23.6 l -13,10.6 c 8.9,16.9 30.1,28 53.7,28 z m 5.2,-62 c -20.4,0 -34.2,-17.3 -34.2,-42.5 0,-25.6 13.9,-42.9 34.2,-42.9 20.1,0 33.8,17.8 33.8,42.9 0,24.8 -13.7,42.5 -33.8,42.5 z"
   id="path121" />
			</g>
		</g>
	</g>
	<g
   id="g135"
   transform="translate(1.86173)">
		<g
   transform="translate(250.72467,149.83515)"
   id="g133">
			<g
   id="g131">
				<path
   d="m 402,101 c 22.1,0 40.1,-11.7 46.1,-30.5 L 434,64.2 c -5,13.4 -16.9,21.9 -32.3,21.9 -21,0 -35.5,-14.9 -37.3,-37.9 h 80.2 c 0.2,-1.5 0.2,-3.9 0.2,-6.5 -0.2,-34.9 -18.6,-57.4 -47.7,-57.4 -29.9,0 -49.6,22.5 -49.6,57.2 0.2,35.9 21.8,59.5 54.5,59.5 z M 364.6,33.6 c 2.4,-21 14.1,-34.2 32.7,-34.2 17.5,0 28.6,12.6 30.1,34.2 z"
   id="path129" />
			</g>
		</g>
	</g>
	<g
   id="g143"
   transform="translate(1.86173)">
		<g
   transform="translate(297.02443,149.83515)"
   id="g141">
			<g
   id="g139">
				<path
   d="m 409,97.3 h 18.4 L 454.1,52 480.3,97.3 h 18.6 L 464,40.6 496.7,-12 H 478.5 L 454,29.4 429.5,-12 h -18.4 l 32.7,52.6 z"
   id="path137" />
			</g>
		</g>
	</g>
	<g
   id="g151"
   transform="translate(1.86173)">
		<g
   transform="translate(202.49999,247.31329)"
   id="g149">
			<g
   id="g147">
				<path
   d="m 663.4,3.5 c 28.6,0 48.1,-23.4 48.1,-58.3 0,-35.1 -19.5,-58.5 -48.1,-58.5 -16.2,0 -29,7.8 -36.6,21.2 h -0.2 v -67.4 H 610.1 V -0.2 h 14.3 l 1.7,-18.2 h 0.2 c 7.4,13.9 20.6,21.9 37.1,21.9 z m -2.8,-15.6 c -20.6,0 -34.4,-17.5 -34.4,-42.7 0,-25.6 13.9,-42.9 34.4,-42.9 20.6,0 34.4,17.3 34.4,42.9 0,25.4 -14.1,42.7 -34.4,42.7 z"
   id="path145" />
			</g>
		</g>
	</g>
	<g
   id="g159"
   transform="translate(1.86173)">
		<g
   transform="translate(251.57595,247.31329)"
   id="g157">
			<g
   id="g155">
				<path
   d="m 727.1,3.5 c 31.4,0 52,-23.2 52,-58.5 0,-35.3 -20.6,-58.3 -52,-58.3 -31.2,0 -51.8,23 -51.8,58.3 0,35.3 20.7,58.5 51.8,58.5 z m 0,-14.9 c -21.4,0 -35.3,-17.1 -35.3,-43.5 0,-26.2 13.9,-43.1 35.3,-43.1 21.4,0 35.3,16.9 35.3,43.1 0.1,26.4 -13.8,43.5 -35.3,43.5 z"
   id="path153" />
			</g>
		</g>
	</g>
	<g
   id="g167"
   transform="translate(1.86173)">
		<g
   transform="translate(299.84591,247.31329)"
   id="g165">
			<g
   id="g163">
				<path
   d="m 789.6,3.5 c 17.5,0 31.2,-11.3 32.7,-29.5 l -13.9,-5.8 c -1.1,14.1 -8.5,21 -17.8,21 -10,0 -15.4,-7.8 -15.4,-19.1 l -0.2,-66 h 41 v -13.7 h -41 v -35.5 l -16.5,3.9 v 31.6 h -21.2 v 13.7 h 21.2 l 0.2,68.2 c 0.1,18.9 12,31.2 30.9,31.2 z"
   id="path161" />
			</g>
		</g>
	</g>
	<path
   class="st5"
   d="m 270.4,103.1 c 60.7,0 119.6,0 180.2,0"
   id="path169" />
	<path
   class="st5"
   d="m 214.3,103.1 c 6.4,0 12.9,0 19.3,0"
   id="path171" />
	<path
   class="st7"
   d="m 325.5,147.7 c 43.1,0.4 85.1,0.4 127.7,0"
   id="path173" />
	<path
   class="st7"
   d="m 161.2,147.7 c 42.4,0.4 84.4,0.4 126.7,0"
   id="path175" />
	<path
   class="st9"
   d="m 175.3,192.3 c 92.4,-0.2 183.4,-0.2 275.2,0"
   id="path177" />
	<path
   class="st9"
   d="m 95.5,192.3 c 14.1,-0.2 28.1,-0.2 42.4,0"
   id="path179" />
	<path
   class="st7"
   d="m 396.4,236.9 c 19.3,0.2 38.3,0.2 56.8,0"
   id="path181" />
	<path
   class="st7"
   d="m 266.2,236.9 c 31.5,0.2 61.5,0.2 92.3,0"
   id="path183" />
	<path
   class="st11"
   d="m 312.5,281.5 c 47.2,-0.4 93.2,-0.4 140.1,0"
   id="path185" />
	<path
   class="st11"
   d="m 241.6,281.5 c 11.1,-0.4 23.1,-0.4 34.5,0"
   id="path187" />
</g>
<g
   id="Layer_2">
</g>
<text
   xml:space="preserve"
   style="font-style:normal;font-variant:normal;font-weight:normal;font-stretch:normal;font-size:114.667px;line-height:1.25;font-family:Agrandir;-inkscape-font-specification:Agrandir;font-variant-ligatures:none;fill:#000000"
   x="573.45599"
   y="333.45508"
   id="text8947"><tspan
     sodipodi:role="line"
     id="tspan8945"
     x="573.45599"
     y="333.45508"
     dy="0"
     style="font-style:normal;font-variant:normal;font-weight:normal;font-stretch:normal;font-size:114.667px;font-family:Agrandir;-inkscape-font-specification:Agrandir;fill:#000000;fill-opacity:1">education</tspan></text></svg>
