<?xml version="1.0" encoding="utf-8"?>
<!-- Generator: Adobe Adobe Illustrator 24.2.0, SVG Export Plug-In . SVG Version: 6.00 Build 0)  -->
<svg version="1.1" xmlns="http://www.w3.org/2000/svg" xmlns:xlink="http://www.w3.org/1999/xlink" x="0px" y="0px" width="1200px"
	 height="400px" viewBox="0 0 1200 400" style="enable-background:new 0 0 1200 400;" xml:space="preserve">
<style type="text/css">
	.st0{fill:#FFFFFF;stroke:#FFFFFF;stroke-miterlimit:10;}
	.st1{fill:#FFFFFF;stroke:#FFFFFF;stroke-width:15;stroke-linecap:round;stroke-miterlimit:3.9977;}
	.st2{fill:#FFFFFF;stroke:#FFFFFF;stroke-width:15;stroke-linecap:round;}
	.st3{fill:#FFFFFF;stroke:#FFFFFF;stroke-width:15;stroke-linecap:round;stroke-miterlimit:4.0009;}
	.st4{fill:#FFFFFF;stroke:#FFFFFF;stroke-width:15;stroke-linecap:round;stroke-miterlimit:3.998;}
	.st5{fill:none;stroke:#000000;stroke-width:15;stroke-linecap:round;stroke-miterlimit:3.9977;}
	.st6{fill:none;stroke:#FFFFFF;stroke-width:15;stroke-linecap:round;stroke-miterlimit:3.9977;}
	.st7{fill:none;stroke:#000000;stroke-width:15;stroke-linecap:round;}
	.st8{fill:none;stroke:#FFFFFF;stroke-width:15;stroke-linecap:round;}
	.st9{fill:none;stroke:#000000;stroke-width:15;stroke-linecap:round;stroke-miterlimit:4.0009;}
	.st10{fill:none;stroke:#FFFFFF;stroke-width:15;stroke-linecap:round;stroke-miterlimit:4.0009;}
	.st11{fill:none;stroke:#000000;stroke-width:15;stroke-linecap:round;stroke-miterlimit:3.998;}
	.st12{fill:none;stroke:#FFFFFF;stroke-width:15;stroke-linecap:round;stroke-miterlimit:3.998;}
</style>
<g id="Layer_1">
	<g>
		<g transform="translate(201.738272, 149.835151)">
			<g>
				<path d="M324.1,146.5c33.8,0,55.2-21.2,55.2-55.2l-0.2-103.3h-14.7L362.9,5h-0.2c-6.9-12.3-21.2-20.6-36.2-20.6
					c-28.4,0-47.9,23.2-47.9,57.6c0,34.2,19.5,57.4,47.9,57.4c14.3,0,28.8-9.1,36-22.1h0.2v13.9c0,24.9-15.4,40.3-39.2,40.3
					c-16.9,0-32.7-9.3-40.1-23.6l-13,10.6C279.3,135.4,300.5,146.5,324.1,146.5z M329.3,84.5c-20.4,0-34.2-17.3-34.2-42.5
					c0-25.6,13.9-42.9,34.2-42.9c20.1,0,33.8,17.8,33.8,42.9C363.1,66.8,349.4,84.5,329.3,84.5z"/>
			</g>
		</g>
	</g>
	<g>
		<g transform="translate(250.72467, 149.835151)">
			<g>
				<path d="M402,101c22.1,0,40.1-11.7,46.1-30.5l-14.1-6.3c-5,13.4-16.9,21.9-32.3,21.9c-21,0-35.5-14.9-37.3-37.9h80.2
					c0.2-1.5,0.2-3.9,0.2-6.5c-0.2-34.9-18.6-57.4-47.7-57.4c-29.9,0-49.6,22.5-49.6,57.2C347.7,77.4,369.3,101,402,101z
					 M364.6,33.6c2.4-21,14.1-34.2,32.7-34.2c17.5,0,28.6,12.6,30.1,34.2H364.6z"/>
			</g>
		</g>
	</g>
	<g>
		<g transform="translate(297.024429, 149.835151)">
			<g>
				<path d="M409,97.3h18.4L454.1,52l26.2,45.3h18.6L464,40.6l32.7-52.6h-18.2l-24.5,41.4l-24.5-41.4h-18.4l32.7,52.6L409,97.3z"/>
			</g>
		</g>
	</g>
	<g>
		<g transform="translate(202.499991, 247.31329)">
			<g>
				<path d="M663.4,3.5c28.6,0,48.1-23.4,48.1-58.3c0-35.1-19.5-58.5-48.1-58.5c-16.2,0-29,7.8-36.6,21.2h-0.2v-67.4h-16.5V-0.2
					h14.3l1.7-18.2h0.2C633.7-4.5,646.9,3.5,663.4,3.5z M660.6-12.1c-20.6,0-34.4-17.5-34.4-42.7c0-25.6,13.9-42.9,34.4-42.9
					c20.6,0,34.4,17.3,34.4,42.9C695-29.4,680.9-12.1,660.6-12.1z"/>
			</g>
		</g>
	</g>
	<g>
		<g transform="translate(251.57595, 247.31329)">
			<g>
				<path d="M727.1,3.5c31.4,0,52-23.2,52-58.5s-20.6-58.3-52-58.3c-31.2,0-51.8,23-51.8,58.3S696,3.5,727.1,3.5z M727.1-11.4
					c-21.4,0-35.3-17.1-35.3-43.5c0-26.2,13.9-43.1,35.3-43.1s35.3,16.9,35.3,43.1C762.5-28.5,748.6-11.4,727.1-11.4z"/>
			</g>
		</g>
	</g>
	<g>
		<g transform="translate(299.845913, 247.31329)">
			<g>
				<path d="M789.6,3.5c17.5,0,31.2-11.3,32.7-29.5l-13.9-5.8c-1.1,14.1-8.5,21-17.8,21c-10,0-15.4-7.8-15.4-19.1L775-95.9H816
					v-13.7H775v-35.5l-16.5,3.9v31.6h-21.2v13.7h21.2l0.2,68.2C758.8-8.8,770.7,3.5,789.6,3.5z"/>
			</g>
		</g>
	</g>
	<path class="st5" d="M271.4,103.1c60.7,0,119.6,0,180.2,0"/>
	<path class="st5" d="M215.3,103.1c6.4,0,12.9,0,19.3,0"/>
	<path class="st7" d="M325.5,147.7c43.1,0.4,85.1,0.4,127.7,0"/>
	<path class="st7" d="M162.2,147.7c42.4,0.4,84.4,0.4,126.7,0"/>
	<path class="st9" d="M176.3,192.3c92.4-0.2,183.4-0.2,275.2,0"/>
	<path class="st9" d="M96.5,192.3c14.1-0.2,28.1-0.2,42.4,0"/>
	<path class="st7" d="M396.4,236.9c19.3,0.2,38.3,0.2,56.8,0"/>
	<path class="st7" d="M267.2,236.9c31.5,0.2,61.5,0.2,92.3,0"/>
	<path class="st11" d="M312.5,281.5c47.2-0.4,93.2-0.4,140.1,0"/>
	<path class="st11" d="M241.6,281.5c11.1-0.4,23.1-0.4,34.5,0"/>
</g>
<g id="Layer_2">
</g>
</svg>
